<?xml version="1.0" standalone="no"?>
<!DOCTYPE svg PUBLIC "-//W3C//DTD SVG 20010904//EN"
 "http://www.w3.org/TR/2001/REC-SVG-20010904/DTD/svg10.dtd">
<svg version="1.0" xmlns="http://www.w3.org/2000/svg"
 width="885.000000pt" height="885.000000pt" viewBox="0 0 885.000000 885.000000"
 preserveAspectRatio="xMidYMid meet" class="change-my-color">

<g transform="translate(0.000000,885.000000) scale(0.100000,-0.100000)"
fill="#D0104C" stroke="none">
<path d="M4080 8583 c-57 -9 -158 -46 -200 -73 -50 -32 -147 -127 -138 -135 3
-3 47 9 99 27 90 31 100 33 244 32 119 0 168 -5 237 -22 260 -64 498 -204 700
-408 248 -252 342 -485 355 -879 10 -308 -28 -486 -140 -653 -60 -89 -113
-126 -242 -169 -70 -24 -96 -27 -215 -27 -122 -1 -143 2 -223 28 -311 102
-586 418 -662 760 -23 104 -16 216 19 293 21 45 32 57 70 74 87 38 197 60 326
66 266 11 409 -61 439 -221 21 -115 -34 -280 -129 -380 -27 -29 -50 -56 -50
-59 0 -52 248 182 299 281 56 111 69 269 27 357 -56 122 -178 175 -397 175
-193 0 -344 -36 -456 -109 -87 -57 -236 -193 -271 -248 -92 -144 -79 -360 38
-594 110 -222 306 -419 515 -515 103 -48 192 -67 310 -67 161 0 309 48 430
139 102 77 239 201 292 264 68 82 136 218 165 335 21 81 23 113 23 315 -1 172
-5 248 -19 325 -49 270 -150 461 -351 660 -229 228 -493 373 -762 420 -78 14
-271 18 -333 8z"/>
<path d="M7527 7023 c-4 -3 27 -38 68 -76 138 -127 218 -275 276 -507 20 -83
23 -120 23 -290 1 -163 -3 -213 -21 -305 -65 -320 -184 -533 -398 -713 -300
-253 -642 -389 -888 -355 -65 9 -87 18 -146 57 -182 121 -293 317 -315 556 -3
30 0 100 6 155 39 366 272 716 529 796 94 29 129 26 187 -20 72 -57 150 -149
209 -247 71 -117 95 -183 100 -279 4 -69 1 -86 -19 -125 -48 -93 -164 -150
-320 -158 -74 -3 -108 0 -148 13 -52 17 -86 10 -58 -12 47 -38 285 -103 374
-103 103 0 225 44 294 106 120 109 125 261 14 463 -83 152 -219 299 -331 358
-73 39 -243 98 -323 113 -365 66 -788 -552 -721 -1054 36 -269 204 -488 457
-595 198 -84 348 -121 489 -121 217 0 443 93 715 293 356 263 530 628 530
1113 0 341 -104 623 -294 802 -75 70 -111 90 -210 121 -79 24 -71 23 -79 14z"/>
<path d="M1785 6934 c-293 -45 -571 -164 -781 -335 -145 -118 -269 -281 -327
-428 -36 -92 -47 -218 -27 -311 13 -63 30 -89 30 -47 0 46 40 183 74 252 74
150 235 330 390 434 153 104 367 196 551 237 39 9 139 18 225 21 131 4 169 2
246 -15 121 -27 266 -82 394 -149 281 -147 430 -285 526 -487 37 -77 37 -78
32 -180 -10 -187 -76 -334 -213 -471 -115 -115 -245 -184 -449 -238 -68 -18
-109 -21 -256 -21 -149 0 -187 3 -253 22 -154 43 -270 117 -323 208 -23 40
-25 51 -19 102 17 135 109 349 200 465 142 179 306 187 471 22 63 -62 110
-142 126 -213 15 -68 30 -78 22 -15 -12 92 -53 234 -85 294 -43 79 -123 160
-196 195 -48 24 -71 29 -134 29 -70 0 -81 -3 -135 -36 -79 -49 -152 -140 -219
-274 -69 -140 -97 -242 -97 -355 0 -93 30 -258 63 -346 43 -114 178 -209 364
-256 73 -18 118 -22 240 -22 207 0 336 29 510 115 214 105 353 267 411 479 37
139 10 419 -61 623 -74 213 -260 394 -555 542 -235 117 -371 155 -575 160 -77
2 -153 1 -170 -1z"/>
<path d="M4070 5655 c-226 -27 -256 -37 -351 -117 -71 -60 -66 -68 32 -51 45
8 83 13 85 11 1 -2 -29 -28 -67 -58 -124 -97 -292 -282 -396 -435 -22 -33 -54
-74 -70 -92 -16 -17 -46 -71 -67 -120 -21 -48 -56 -131 -79 -183 -37 -86 -41
-103 -41 -180 -1 -85 19 -180 33 -164 4 5 18 38 31 74 29 82 37 91 44 49 35
-230 89 -416 175 -594 26 -56 51 -114 55 -130 14 -54 257 -373 308 -405 36
-21 166 -65 174 -58 2 3 -16 30 -41 59 -76 88 -75 92 2 59 150 -63 355 -109
603 -135 142 -15 182 -16 295 -5 179 16 283 37 330 65 48 29 129 104 121 112
-3 3 -40 0 -82 -6 -41 -7 -77 -11 -80 -9 -2 2 18 20 44 40 126 94 300 281 412
444 29 41 62 86 75 100 24 26 149 300 180 393 20 61 16 157 -9 227 l-14 39
-14 -35 c-8 -19 -23 -56 -32 -83 -10 -26 -21 -45 -25 -42 -5 2 -11 31 -14 64
-17 156 -70 336 -164 551 -30 69 -61 139 -68 155 -16 38 -210 298 -261 350
-30 30 -60 47 -122 69 -46 16 -85 26 -89 23 -3 -4 18 -34 46 -68 29 -34 50
-64 47 -66 -3 -3 -40 9 -83 25 -278 107 -656 159 -923 127z m480 -176 c203
-41 370 -101 519 -188 70 -41 193 -153 241 -218 12 -18 29 -33 35 -33 28 0
119 -271 156 -465 8 -41 14 -135 14 -230 0 -157 -1 -162 -34 -250 -18 -49 -34
-103 -36 -118 -2 -37 -57 -108 -180 -236 -214 -222 -430 -353 -629 -382 -38
-5 -75 -14 -82 -20 -24 -19 -302 38 -464 97 -194 69 -369 184 -455 298 -27 36
-55 66 -62 66 -15 0 -40 55 -81 180 -60 178 -83 302 -89 465 -6 169 7 253 53
355 14 32 24 66 21 73 -7 18 78 126 186 236 212 216 418 340 617 370 41 7 79
16 84 21 11 11 49 6 186 -21z"/>
<path d="M1925 4149 c-194 -36 -459 -175 -672 -352 -222 -185 -343 -397 -413
-724 -27 -126 -38 -408 -21 -521 32 -200 118 -410 222 -542 72 -91 207 -173
308 -187 l46 -6 -100 104 c-78 82 -110 124 -146 194 -161 311 -179 708 -50
1088 110 325 344 567 733 759 160 79 248 101 408 102 l135 1 62 -34 c76 -41
194 -155 251 -242 75 -113 121 -313 107 -464 -29 -310 -194 -619 -410 -765
-85 -57 -147 -80 -220 -80 -54 0 -56 1 -131 72 -179 170 -298 399 -280 536 19
143 167 243 361 244 44 0 102 -7 129 -16 53 -16 74 -13 56 9 -18 21 -173 74
-266 90 -172 30 -355 -28 -437 -137 -75 -102 -62 -258 38 -433 131 -229 250
-330 488 -412 191 -66 311 -56 452 38 202 135 361 404 412 694 21 124 13 315
-17 405 -34 100 -95 210 -153 275 -96 109 -282 210 -502 273 -143 42 -274 52
-390 31z"/>
<path d="M6553 3819 c-283 -33 -535 -166 -667 -353 -126 -177 -158 -343 -116
-590 48 -284 104 -411 245 -552 187 -189 514 -358 790 -410 108 -20 327 -15
445 11 187 41 397 129 556 234 223 147 411 384 460 581 18 72 15 207 -7 275
l-13 40 -9 -45 c-43 -216 -135 -380 -304 -541 -98 -93 -204 -164 -358 -239
-370 -179 -690 -201 -1029 -70 -348 135 -601 336 -713 567 -35 75 -35 76 -31
182 10 236 134 448 335 577 279 178 683 214 967 85 74 -33 175 -122 201 -177
13 -29 14 -44 5 -96 -24 -140 -80 -275 -165 -404 -87 -131 -170 -187 -274
-186 -148 1 -314 164 -363 357 -19 75 -22 27 -4 -68 44 -234 128 -366 279
-438 187 -88 361 22 499 317 61 130 81 227 76 353 -6 120 -39 273 -74 343 -92
182 -399 286 -731 247z"/>
<path d="M4179 2710 c-134 -21 -242 -72 -379 -179 -322 -250 -424 -455 -423
-856 0 -329 61 -563 201 -775 115 -174 295 -341 501 -463 332 -198 740 -239
960 -97 53 34 147 127 116 115 -139 -53 -168 -59 -320 -59 -212 1 -356 35
-543 131 -289 148 -521 374 -643 628 -81 169 -119 367 -119 630 0 252 43 431
141 580 54 84 100 121 193 158 201 81 416 73 611 -22 210 -104 397 -303 495
-531 51 -117 71 -203 71 -312 1 -108 -25 -199 -66 -235 -61 -54 -295 -99 -464
-90 -223 12 -331 81 -351 225 -18 130 34 285 131 387 29 30 49 55 44 55 -16 0
-138 -105 -194 -167 -85 -94 -141 -223 -141 -323 0 -101 53 -203 127 -247 85
-50 156 -66 298 -66 262 0 398 51 596 226 101 89 142 148 165 237 56 220 -88
568 -331 799 -203 193 -454 286 -676 251z"/>
</g>
</svg>
